HIERARCHY
ROOT Hips
{
 OFFSET 0.000000 0.000000 0.000000
 CHANNELS 6 Xposition Yposition Zposition Yrotation Xrotation Zrotation
 JOINT Chest
 {
  OFFSET 0.000000 9.585900 0.002600
  CHANNELS 3 Yrotation Xrotation Zrotation
  JOINT Chest2
  {
   OFFSET 0.000000 9.601200 -0.005300
   CHANNELS 3 Yrotation Xrotation Zrotation
   JOINT Chest3
   {
    OFFSET 0.000000 9.561800 0.000000
    CHANNELS 3 Yrotation Xrotation Zrotation
    JOINT Chest4
    {
     OFFSET 0.000000 9.552100 0.000000
     CHANNELS 3 Yrotation Xrotation Zrotation
     JOINT Neck
     {
      OFFSET 0.000000 14.453000 0.000000
      CHANNELS 3 Yrotation Xrotation Zrotation
      JOINT Head
      {
       OFFSET 0.000000 8.936500 -0.011300
       CHANNELS 3 Yrotation Xrotation Zrotation
       End Site
       {
        OFFSET 0.000000 17.073600 -0.006000
       }
      }
     }
     JOINT RightCollar
     {
      OFFSET -2.921100 9.558500 0.000000
      CHANNELS 3 Yrotation Xrotation Zrotation
      JOINT RightShoulder
      {
       OFFSET -13.519700 0.000000 0.000000
       CHANNELS 3 Yrotation Xrotation Zrotation
       JOINT RightElbow
       {
        OFFSET 0.000000 -29.696600 0.000000
        CHANNELS 3 Yrotation Xrotation Zrotation
        JOINT RightWrist
        {
         OFFSET 0.000000 -24.004700 0.000000
         CHANNELS 3 Yrotation Xrotation Zrotation
         End Site
         {
          OFFSET 0.000000 -17.728500 0.000000
         }
        }
       }
      }
     }
     JOINT LeftCollar
     {
      OFFSET 2.921100 9.558500 0.000000
      CHANNELS 3 Yrotation Xrotation Zrotation
      JOINT LeftShoulder
      {
       OFFSET 13.519700 0.000000 0.000000
       CHANNELS 3 Yrotation Xrotation Zrotation
       JOINT LeftElbow
       {
        OFFSET 0.000000 -29.696600 0.000000
        CHANNELS 3 Yrotation Xrotation Zrotation
        JOINT LeftWrist
        {
         OFFSET 0.000000 -24.004700 0.000000
         CHANNELS 3 Yrotation Xrotation Zrotation
         End Site
         {
          OFFSET 0.000000 -17.728500 0.000000
         }
        }
       }
      }
     }
    }
   }
  }
 }
 JOINT RightHip
 {
  OFFSET -7.771700 -0.012900 -0.001300
  CHANNELS 3 Yrotation Xrotation Zrotation
  JOINT RightKnee
  {
   OFFSET 0.000000 -40.869800 0.001200
   CHANNELS 3 Yrotation Xrotation Zrotation
   JOINT RightAnkle
   {
    OFFSET 0.000000 -39.717900 0.002100
    CHANNELS 3 Yrotation Xrotation Zrotation
    JOINT RightToe
    {
     OFFSET 0.000000 -4.965400 11.033500
     CHANNELS 3 Yrotation Xrotation Zrotation
     End Site
     {
      OFFSET 0.000000 -1.423100 5.872300
     }
    }
   }
  }
 }
 JOINT LeftHip
 {
  OFFSET 7.771700 -0.012900 -0.001300
  CHANNELS 3 Yrotation Xrotation Zrotation
  JOINT LeftKnee
  {
   OFFSET 0.000000 -40.869800 0.001200
   CHANNELS 3 Yrotation Xrotation Zrotation
   JOINT LeftAnkle
   {
    OFFSET 0.000000 -39.717900 0.002100
    CHANNELS 3 Yrotation Xrotation Zrotation
    JOINT LeftToe
    {
     OFFSET 0.000000 -4.965400 11.033500
     CHANNELS 3 Yrotation Xrotation Zrotation
     End Site
     {
      OFFSET 0.000000 -1.423100 5.872300
     }
    }
   }
  }
 }
}
MOTION
Frames: 8
Frame Time: 0.008333
-6.704294 56.660468 32.410594 174.301666 -35.042362 0.625167 4.227508 22.104866 2.505109 0.553220 3.181711 0.190590 0.902324 5.151180 0.324334 3.551146 18.836542 1.637791 9.205876 17.877591 -5.549520 18.682008 -1.137064 -13.113057 3.119784 0.051464 2.211751 15.737582 -25.653188 -15.038449 53.545273 -41.286114 -32.481078 11.327604 -8.086114 -43.229637 -2.210317 1.074758 0.356737 16.968939 -3.353926 6.843016 -162.314512 -37.063537 157.527346 -26.323583 -23.368765 43.371730 13.040008 -39.163710 -4.510649 4.371751 73.101213 6.429745 8.549530 2.794752 6.669677 -0.030413 0.076670 0.007276 -7.732720 -41.648666 -4.284172 26.318625 72.084446 27.510497 -25.942422 3.988118 -7.349053 -0.152095 -0.632366 -0.076541
-6.703733 56.658317 32.409034 174.321389 -35.083354 0.604207 4.374994 22.059477 2.492263 0.571098 3.168751 0.182766 0.931113 5.131102 0.312106 3.659910 18.794744 1.606886 8.917741 17.860938 -5.346501 18.096531 -1.262451 -12.660444 2.939377 0.204453 2.324156 15.458347 -25.629743 -14.750747 53.662217 -41.226459 -32.770467 11.314623 -8.092468 -43.074890 -2.041906 1.384936 0.561780 17.595970 -3.277765 6.776912 -162.782717 -36.789441 157.809074 -26.336976 -23.374316 43.422833 13.039030 -39.131437 -4.489497 4.364118 73.112507 6.419196 8.546670 2.805419 6.692368 -0.028826 0.063519 0.001730 -7.701868 -41.609576 -4.282141 26.329184 72.091661 27.521630 -25.957075 3.986521 -7.334706 -0.160522 -0.617252 -0.064965
-6.692571 56.653119 32.412207 174.342858 -35.105628 0.507898 4.542752 21.992789 2.554194 0.588042 3.156370 0.175180 0.958472 5.111869 0.300310 3.763407 18.754415 1.576573 8.589747 17.842220 -5.134789 17.435116 -1.397386 -12.179304 2.787189 0.345166 2.413896 15.172522 -25.585894 -14.423996 53.787053 -41.146787 -33.091585 11.304315 -8.062916 -42.898595 -1.878825 1.669741 0.760753 18.136504 -3.140014 6.733284 -163.156879 -36.487525 158.003368 -26.346714 -23.380594 43.448813 13.005234 -39.127603 -4.400262 4.298746 73.102163 6.393422 8.554532 2.841325 6.696111 -0.035327 0.047928 -0.001464 -7.723135 -41.589146 -4.156778 26.210325 72.129777 27.407109 -25.991544 4.020675 -7.315225 -0.144962 -0.639508 -0.055881
-6.700623 56.649169 32.411842 174.354678 -35.151616 0.524222 4.667979 21.961432 2.499330 0.604075 3.145062 0.167950 0.984481 5.094248 0.289104 3.861447 18.716752 1.547393 8.223535 17.821058 -4.915978 16.700960 -1.540881 -11.672729 2.663459 0.473772 2.485666 14.903946 -25.524169 -14.081550 53.903020 -41.049362 -33.435314 11.298937 -7.998647 -42.704029 -1.720214 1.922173 0.948553 18.573336 -2.947296 6.729124 -163.463542 -36.180793 158.138763 -26.344984 -23.381128 43.441462 13.089205 -39.087790 -4.472221 4.279619 73.123853 6.424957 8.559668 2.854511 6.707386 -0.029297 0.035150 -0.002412 -7.693286 -41.554056 -4.178573 26.289018 72.129770 27.437761 -26.000913 4.043205 -7.252020 -0.178035 -0.637876 -0.073920
-6.703646 56.644204 32.413513 174.381512 -35.199635 0.490888 4.790803 21.933091 2.485630 0.619354 3.135277 0.160977 1.009252 5.079035 0.278262 3.954247 18.683003 1.518658 7.819992 17.795184 -4.691480 15.896220 -1.695702 -11.143536 2.566976 0.586582 2.543539 14.669856 -25.447680 -13.745870 53.994875 -40.942090 -33.787606 11.289708 -7.899748 -42.486173 -1.569162 2.136420 1.123235 18.892904 -2.713760 6.775631 -163.727851 -35.898400 158.239232 -26.334250 -23.371617 43.394303 13.129815 -39.050173 -4.467351 4.281635 73.131909 6.449728 8.537633 2.869791 6.745486 -0.039900 0.025040 -0.007558 -7.713558 -41.512682 -4.154637 26.266477 72.140462 27.409308 -26.001335 4.040365 -7.265497 -0.169059 -0.625086 -0.053262
-6.707917 56.637562 32.417963 174.406166 -35.241333 0.454652 4.909886 21.903664 2.474158 0.633855 3.127762 0.154422 1.032648 5.067328 0.268016 4.041154 18.655127 1.491133 7.380254 17.761781 -4.464729 15.024357 -1.865374 -10.598441 2.496016 0.678125 2.587585 14.482394 -25.361012 -13.436705 54.044027 -40.839914 -34.126440 11.269457 -7.765693 -42.233382 -1.427088 2.309756 1.277814 19.102795 -2.457569 6.872574 -163.983968 -35.659142 158.323954 -26.312861 -23.349580 43.296917 13.183914 -39.019950 -4.483527 4.248592 73.138267 6.471822 8.526863 2.891786 6.768711 -0.022583 0.016816 -0.013791 -7.732434 -41.485046 -4.101047 26.236891 72.163879 27.342042 -26.024476 4.056808 -7.236853 -0.184950 -0.619060 -0.050238
-6.714230 56.628555 32.426394 174.414947 -35.268090 0.428120 5.036856 21.865564 2.459644 0.647953 3.122769 0.148232 1.055328 5.059512 0.258287 4.124129 18.633614 1.464659 6.905796 17.719378 -4.235942 14.087998 -2.051341 -10.038098 2.439221 0.748178 2.624660 14.352088 -25.266238 -13.173364 54.032326 -40.765059 -34.426932 11.239643 -7.600472 -41.942759 -1.292812 2.442664 1.410430 19.211996 -2.193037 7.014930 -164.255205 -35.471296 158.398696 -26.278544 -23.317907 43.152526 13.264507 -39.006068 -4.512859 4.212447 73.140975 6.495551 8.518152 2.912894 6.796356 -0.047499 0.015741 -0.018137 -7.741681 -41.472405 -4.041421 26.190926 72.184935 27.255056 -26.051622 4.074577 -7.213514 -0.171198 -0.605171 -0.050757
-6.721666 56.619034 32.436499 174.425890 -35.297624 0.398033 5.161854 21.835884 2.444889 0.662156 3.119840 0.142038 1.078188 5.054830 0.248613 4.206290 18.617008 1.437860 6.397562 17.668228 -4.003424 13.087901 -2.252395 -9.459031 2.386481 0.801921 2.661234 14.276209 -25.165190 -12.962730 53.982692 -40.755317 -34.650500 11.211415 -7.378044 -41.657357 -1.167755 2.540606 1.524632 19.222323 -1.934093 7.190676 -164.536863 -35.338976 158.450412 -26.230700 -23.288151 42.983688 13.288239 -38.989712 -4.511761 4.205691 73.139046 6.516185 8.514132 2.924774 6.814683 -0.020433 0.040641 -0.018928 -7.754882 -41.456446 -3.977272 26.147839 72.203115 27.167041 -26.076697 4.091414 -7.190690 -0.162074 -0.592995 -0.043423
